ffmpeg started on 2025-07-06 at 17:30:35
Report written to "D:\Convert\FFMetrics\reports\ssim_report-6.txt"
Log level: 32
Command line:
ffmpeg -hide_banner -nostdin -i "G:\\\xc0\xed\xe8\xec\xe5\\\xce\xed\xe3\xee\xe8\xed\xe3\xe8\\!_37_\xc7\xe8\xec\xe0_2025\\JamClub\\\xc3\xee\xeb\xf3\xe1\xe0\xff \xf8\xea\xe0\xf2\xf3\xeb\xea\xe0\\JamClub_Ao_no_Hako_03_1080p_HEVC.mkv" -i "G:\\\xc0\xed\xe8\xec\xe5\\\xce\xed\xe3\xee\xe8\xed\xe3\xe8\\!_37_\xc7\xe8\xec\xe0_2025\\JamClub\\\xc3\xee\xeb\xf3\xe1\xe0\xff \xf8\xea\xe0\xf2\xf3\xeb\xea\xe0\\JamClub_Ao_no_Hako_03_1080p.mp4" -lavfi "[0:v]settb=AVTB,setpts=PTS-STARTPTS,format=pix_fmts=yuv420p10,fps=24000/1001,scale=1920:1080:flags=bicubic[main];[1:v]settb=AVTB,setpts=PTS-STARTPTS,format=pix_fmts=yuv420p,fps=24000/1001,scale=1920:1080:flags=bicubic[ref];[main][ref]ssim=eof_action=endall:stats_file='D\\:/Convert/FFMetrics/logs/ssim_logfile-6.txt'" -f null -
Input #0, matroska,webm, from 'G:\Аниме\Онгоинги\!_37_Зима_2025\JamClub\Голубая шкатулка\JamClub_Ao_no_Hako_03_1080p_HEVC.mkv':
  Metadata:
    COMPATIBLE_BRANDS: isomiso2avc1mp41
    MAJOR_BRAND     : isom
    MINOR_VERSION   : 512
    ENCODER         : Lavf61.7.100
  Duration: 00:23:59.25, start: -0.001000, bitrate: 1206 kb/s
  Stream #0:0: Video: hevc (Main 10), yuv420p10le(tv, bt709, progressive), 1920x1080 [SAR 1:1 DAR 16:9], 23.98 fps, 23.98 tbr, 1k tbn (default)
      Metadata:
        HANDLER_NAME    : VideoHandler
        VENDOR_ID       : [0][0][0][0]
        ENCODER         : Lavc61.19.100 libx265
        BPS             : 1008973
        DURATION        : 00:23:59.187708333
        NUMBER_OF_FRAMES: 34506
        NUMBER_OF_BYTES : 181512675
        _STATISTICS_WRITING_APP: mkvpropedit v66.0.0 ('Josie') 64-bit
        _STATISTICS_WRITING_DATE_UTC: 2025-06-30 12:46:14
        _STATISTICS_TAGS: BPS DURATION NUMBER_OF_FRAMES NUMBER_OF_BYTES
  Stream #0:1(eng): Audio: aac (LC), 48000 Hz, stereo, fltp (default)
      Metadata:
        HANDLER_NAME    : SoundHandler
        VENDOR_ID       : [0][0][0][0]
        ENCODER         : Lavc61.19.100 aac
        BPS             : 193357
        DURATION        : 00:23:59.213000000
        NUMBER_OF_FRAMES: 67464
        NUMBER_OF_BYTES : 34785325
        _STATISTICS_WRITING_APP: mkvpropedit v66.0.0 ('Josie') 64-bit
        _STATISTICS_WRITING_DATE_UTC: 2025-06-30 12:46:14
        _STATISTICS_TAGS: BPS DURATION NUMBER_OF_FRAMES NUMBER_OF_BYTES
Input #1, mov,mp4,m4a,3gp,3g2,mj2, from 'G:\Аниме\Онгоинги\!_37_Зима_2025\JamClub\Голубая шкатулка\JamClub_Ao_no_Hako_03_1080p.mp4':
  Metadata:
    major_brand     : isom
    minor_version   : 512
    compatible_brands: isomiso2avc1mp41
    encoder         : Lavf60.16.100
  Duration: 00:23:59.23, start: 0.000000, bitrate: 3945 kb/s
  Stream #1:0[0x1](und): Video: h264 (High) (avc1 / 0x31637661), yuv420p(progressive), 1920x1080 [SAR 1:1 DAR 16:9], 3747 kb/s, 23.98 fps, 23.98 tbr, 90k tbn (default)
      Metadata:
        handler_name    : VideoHandler
        vendor_id       : [0][0][0][0]
  Stream #1:1[0x2](eng): Audio: aac (LC) (mp4a / 0x6134706D), 48000 Hz, stereo, fltp, 191 kb/s (default)
      Metadata:
        handler_name    : SoundHandler
        vendor_id       : [0][0][0][0]
Stream mapping:
  Stream #0:0 (hevc) -> settb:default
  Stream #1:0 (h264) -> settb:default
  ssim:default -> Stream #0:0 (wrapped_avframe)
  Stream #0:1 -> #0:1 (aac (native) -> pcm_s16le (native))
Output #0, null, to 'pipe:':
  Metadata:
    COMPATIBLE_BRANDS: isomiso2avc1mp41
    MAJOR_BRAND     : isom
    MINOR_VERSION   : 512
    encoder         : Lavf61.7.100
  Stream #0:0: Video: wrapped_avframe, yuv420p10le(tv, bt709, progressive), 1920x1080 [SAR 1:1 DAR 16:9], q=2-31, 200 kb/s, 23.98 fps, 23.98 tbn
      Metadata:
        encoder         : Lavc61.19.100 wrapped_avframe
  Stream #0:1(eng): Audio: pcm_s16le, 48000 Hz, stereo, s16, 1536 kb/s (default)
      Metadata:
        HANDLER_NAME    : SoundHandler
        VENDOR_ID       : [0][0][0][0]
        _STATISTICS_TAGS: BPS DURATION NUMBER_OF_FRAMES NUMBER_OF_BYTES
        BPS             : 193357
        DURATION        : 00:23:59.213000000
        NUMBER_OF_FRAMES: 67464
        NUMBER_OF_BYTES : 34785325
        _STATISTICS_WRITING_APP: mkvpropedit v66.0.0 ('Josie') 64-bit
        _STATISTICS_WRITING_DATE_UTC: 2025-06-30 12:46:14
        encoder         : Lavc61.19.100 pcm_s16le
frame=  105 fps=0.0 q=-0.0 size=N/A time=00:00:04.37 bitrate=N/A speed=8.56x    frame=  264 fps=258 q=-0.0 size=N/A time=00:00:11.01 bitrate=N/A speed=10.8x    frame=  463 fps=299 q=-0.0 size=N/A time=00:00:19.31 bitrate=N/A speed=12.5x    frame=  701 fps=340 q=-0.0 size=N/A time=00:00:29.23 bitrate=N/A speed=14.2x    frame=  959 fps=373 q=-0.0 size=N/A time=00:00:39.99 bitrate=N/A speed=15.5x    frame= 1184 fps=384 q=-0.0 size=N/A time=00:00:49.38 bitrate=N/A speed=  16x    frame= 1447 fps=401 q=-0.0 size=N/A time=00:01:00.35 bitrate=N/A speed=16.7x    frame= 1704 fps=413 q=-0.0 size=N/A time=00:01:11.07 bitrate=N/A speed=17.2x    frame= 1902 fps=410 q=-0.0 size=N/A time=00:01:19.32 bitrate=N/A speed=17.1x    frame= 2121 fps=412 q=-0.0 size=N/A time=00:01:28.46 bitrate=N/A speed=17.2x    frame= 2349 fps=414 q=-0.0 size=N/A time=00:01:37.97 bitrate=N/A speed=17.3x    frame= 2550 fps=412 q=-0.0 size=N/A time=00:01:46.35 bitrate=N/A speed=17.2x    frame= 2766 fps=413 q=-0.0 size=N/A time=00:01:55.36 bitrate=N/A speed=17.2x    frame= 2980 fps=413 q=-0.0 size=N/A time=00:02:04.29 bitrate=N/A speed=17.2x    frame= 3188 fps=412 q=-0.0 size=N/A time=00:02:12.96 bitrate=N/A speed=17.2x    frame= 3381 fps=410 q=-0.0 size=N/A time=00:02:21.01 bitrate=N/A speed=17.1x    frame= 3593 fps=410 q=-0.0 size=N/A time=00:02:29.85 bitrate=N/A speed=17.1x    frame= 3807 fps=410 q=-0.0 size=N/A time=00:02:38.78 bitrate=N/A speed=17.1x    frame= 4018 fps=410 q=-0.0 size=N/A time=00:02:47.58 bitrate=N/A speed=17.1x    frame= 4232 fps=411 q=-0.0 size=N/A time=00:02:56.50 bitrate=N/A speed=17.1x    frame= 4468 fps=413 q=-0.0 size=N/A time=00:03:06.35 bitrate=N/A speed=17.2x    frame= 4700 fps=414 q=-0.0 size=N/A time=00:03:16.02 bitrate=N/A speed=17.3x    frame= 4963 fps=419 q=-0.0 size=N/A time=00:03:26.99 bitrate=N/A speed=17.5x    frame= 5225 fps=422 q=-0.0 size=N/A time=00:03:37.92 bitrate=N/A speed=17.6x    frame= 5467 fps=424 q=-0.0 size=N/A time=00:03:48.01 bitrate=N/A speed=17.7x    frame= 5728 fps=427 q=-0.0 size=N/A time=00:03:58.90 bitrate=N/A speed=17.8x    frame= 5949 fps=427 q=-0.0 size=N/A time=00:04:08.12 bitrate=N/A speed=17.8x    frame= 6193 fps=429 q=-0.0 size=N/A time=00:04:18.29 bitrate=N/A speed=17.9x    frame= 6469 fps=433 q=-0.0 size=N/A time=00:04:29.81 bitrate=N/A speed=18.1x    frame= 6729 fps=435 q=-0.0 size=N/A time=00:04:40.65 bitrate=N/A speed=18.1x    frame= 7005 fps=438 q=-0.0 size=N/A time=00:04:52.16 bitrate=N/A speed=18.3x    frame= 7267 fps=441 q=-0.0 size=N/A time=00:05:03.09 bitrate=N/A speed=18.4x    frame= 7543 fps=443 q=-0.0 size=N/A time=00:05:14.60 bitrate=N/A speed=18.5x    frame= 7810 fps=445 q=-0.0 size=N/A time=00:05:25.74 bitrate=N/A speed=18.6x    frame= 8069 fps=447 q=-0.0 size=N/A time=00:05:36.54 bitrate=N/A speed=18.7x    frame= 8316 fps=448 q=-0.0 size=N/A time=00:05:46.84 bitrate=N/A speed=18.7x    frame= 8605 fps=451 q=-0.0 size=N/A time=00:05:58.90 bitrate=N/A speed=18.8x    frame= 8846 fps=452 q=-0.0 size=N/A time=00:06:08.95 bitrate=N/A speed=18.8x    frame= 9105 fps=453 q=-0.0 size=N/A time=00:06:19.75 bitrate=N/A speed=18.9x    frame= 9336 fps=453 q=-0.0 size=N/A time=00:06:29.38 bitrate=N/A speed=18.9x    frame= 9600 fps=454 q=-0.0 size=N/A time=00:06:40.40 bitrate=N/A speed=18.9x    frame= 9836 fps=454 q=-0.0 size=N/A time=00:06:50.24 bitrate=N/A speed=18.9x    frame=10070 fps=454 q=-0.0 size=N/A time=00:07:00.00 bitrate=N/A speed=18.9x    frame=10345 fps=456 q=-0.0 size=N/A time=00:07:11.47 bitrate=N/A speed=  19x    frame=10608 fps=457 q=-0.0 size=N/A time=00:07:22.44 bitrate=N/A speed=19.1x    frame=10835 fps=457 q=-0.0 size=N/A time=00:07:31.90 bitrate=N/A speed=19.1x    frame=11071 fps=457 q=-0.0 size=N/A time=00:07:41.75 bitrate=N/A speed=19.1x    frame=11337 fps=458 q=-0.0 size=N/A time=00:07:52.84 bitrate=N/A speed=19.1x    frame=11606 fps=459 q=-0.0 size=N/A time=00:08:04.06 bitrate=N/A speed=19.2x    frame=11879 fps=461 q=-0.0 size=N/A time=00:08:15.45 bitrate=N/A speed=19.2x    frame=12138 fps=462 q=-0.0 size=N/A time=00:08:26.25 bitrate=N/A speed=19.3x    frame=12376 fps=462 q=-0.0 size=N/A time=00:08:36.18 bitrate=N/A speed=19.2x    frame=12616 fps=462 q=-0.0 size=N/A time=00:08:46.19 bitrate=N/A speed=19.3x    frame=12829 fps=461 q=-0.0 size=N/A time=00:08:55.07 bitrate=N/A speed=19.2x    frame=13042 fps=460 q=-0.0 size=N/A time=00:09:03.96 bitrate=N/A speed=19.2x    frame=13261 fps=459 q=-0.0 size=N/A time=00:09:13.09 bitrate=N/A speed=19.2x    frame=13491 fps=459 q=-0.0 size=N/A time=00:09:22.68 bitrate=N/A speed=19.1x    frame=13716 fps=459 q=-0.0 size=N/A time=00:09:32.07 bitrate=N/A speed=19.1x    frame=13952 fps=459 q=-0.0 size=N/A time=00:09:41.91 bitrate=N/A speed=19.1x    frame=14211 fps=459 q=-0.0 size=N/A time=00:09:52.71 bitrate=N/A speed=19.2x    frame=14462 fps=460 q=-0.0 size=N/A time=00:10:03.18 bitrate=N/A speed=19.2x    frame=14711 fps=460 q=-0.0 size=N/A time=00:10:13.57 bitrate=N/A speed=19.2x    frame=14963 fps=461 q=-0.0 size=N/A time=00:10:24.08 bitrate=N/A speed=19.2x    frame=15214 fps=461 q=-0.0 size=N/A time=00:10:34.55 bitrate=N/A speed=19.2x    frame=15458 fps=461 q=-0.0 size=N/A time=00:10:44.72 bitrate=N/A speed=19.2x    frame=15667 fps=460 q=-0.0 size=N/A time=00:10:53.44 bitrate=N/A speed=19.2x    frame=15903 fps=460 q=-0.0 size=N/A time=00:11:03.28 bitrate=N/A speed=19.2x    frame=16123 fps=460 q=-0.0 size=N/A time=00:11:12.46 bitrate=N/A speed=19.2x    frame=16367 fps=460 q=-0.0 size=N/A time=00:11:22.64 bitrate=N/A speed=19.2x    frame=16638 fps=461 q=-0.0 size=N/A time=00:11:33.94 bitrate=N/A speed=19.2x    frame=16899 fps=462 q=-0.0 size=N/A time=00:11:44.82 bitrate=N/A speed=19.3x    frame=17138 fps=462 q=-0.0 size=N/A time=00:11:54.79 bitrate=N/A speed=19.3x    frame=17356 fps=461 q=-0.0 size=N/A time=00:12:03.88 bitrate=N/A speed=19.2x    frame=17594 fps=461 q=-0.0 size=N/A time=00:12:13.81 bitrate=N/A speed=19.2x    frame=17830 fps=461 q=-0.0 size=N/A time=00:12:23.65 bitrate=N/A speed=19.2x    frame=18074 fps=461 q=-0.0 size=N/A time=00:12:33.83 bitrate=N/A speed=19.2x    frame=18298 fps=461 q=-0.0 size=N/A time=00:12:43.17 bitrate=N/A speed=19.2x    frame=18525 fps=461 q=-0.0 size=N/A time=00:12:52.64 bitrate=N/A speed=19.2x    frame=18787 fps=461 q=-0.0 size=N/A time=00:13:03.57 bitrate=N/A speed=19.2x    frame=19035 fps=461 q=-0.0 size=N/A time=00:13:13.91 bitrate=N/A speed=19.2x    frame=19274 fps=462 q=-0.0 size=N/A time=00:13:23.88 bitrate=N/A speed=19.3x    frame=19551 fps=462 q=-0.0 size=N/A time=00:13:35.43 bitrate=N/A speed=19.3x    frame=19807 fps=463 q=-0.0 size=N/A time=00:13:46.11 bitrate=N/A speed=19.3x    frame=20041 fps=463 q=-0.0 size=N/A time=00:13:55.87 bitrate=N/A speed=19.3x    frame=20302 fps=463 q=-0.0 size=N/A time=00:14:06.76 bitrate=N/A speed=19.3x    frame=20530 fps=463 q=-0.0 size=N/A time=00:14:16.27 bitrate=N/A speed=19.3x    frame=20780 fps=463 q=-0.0 size=N/A time=00:14:26.69 bitrate=N/A speed=19.3x    frame=21028 fps=463 q=-0.0 size=N/A time=00:14:37.04 bitrate=N/A speed=19.3x    frame=21256 fps=463 q=-0.0 size=N/A time=00:14:46.55 bitrate=N/A speed=19.3x    frame=21496 fps=463 q=-0.0 size=N/A time=00:14:56.56 bitrate=N/A speed=19.3x    frame=21730 fps=463 q=-0.0 size=N/A time=00:15:06.32 bitrate=N/A speed=19.3x    frame=21979 fps=463 q=-0.0 size=N/A time=00:15:16.70 bitrate=N/A speed=19.3x    frame=22219 fps=463 q=-0.0 size=N/A time=00:15:26.71 bitrate=N/A speed=19.3x    frame=22486 fps=464 q=-0.0 size=N/A time=00:15:37.85 bitrate=N/A speed=19.3x    frame=22731 fps=464 q=-0.0 size=N/A time=00:15:48.07 bitrate=N/A speed=19.4x    frame=22995 fps=465 q=-0.0 size=N/A time=00:15:59.08 bitrate=N/A speed=19.4x    frame=23265 fps=465 q=-0.0 size=N/A time=00:16:10.34 bitrate=N/A speed=19.4x    frame=23536 fps=466 q=-0.0 size=N/A time=00:16:21.64 bitrate=N/A speed=19.4x    frame=23773 fps=466 q=-0.0 size=N/A time=00:16:31.53 bitrate=N/A speed=19.4x    frame=23996 fps=465 q=-0.0 size=N/A time=00:16:40.83 bitrate=N/A speed=19.4x    frame=24240 fps=465 q=-0.0 size=N/A time=00:16:51.01 bitrate=N/A speed=19.4x    frame=24514 fps=466 q=-0.0 size=N/A time=00:17:02.43 bitrate=N/A speed=19.4x    frame=24776 fps=467 q=-0.0 size=N/A time=00:17:13.36 bitrate=N/A speed=19.5x    frame=24985 fps=466 q=-0.0 size=N/A time=00:17:22.08 bitrate=N/A speed=19.4x    frame=25218 fps=466 q=-0.0 size=N/A time=00:17:31.80 bitrate=N/A speed=19.4x    frame=25451 fps=466 q=-0.0 size=N/A time=00:17:41.51 bitrate=N/A speed=19.4x    frame=25706 fps=466 q=-0.0 size=N/A time=00:17:52.15 bitrate=N/A speed=19.4x    frame=25962 fps=466 q=-0.0 size=N/A time=00:18:02.83 bitrate=N/A speed=19.4x    frame=26234 fps=467 q=-0.0 size=N/A time=00:18:14.17 bitrate=N/A speed=19.5x    frame=26470 fps=467 q=-0.0 size=N/A time=00:18:24.01 bitrate=N/A speed=19.5x    frame=26718 fps=467 q=-0.0 size=N/A time=00:18:34.36 bitrate=N/A speed=19.5x    frame=27013 fps=468 q=-0.0 size=N/A time=00:18:46.66 bitrate=N/A speed=19.5x    frame=27293 fps=468 q=-0.0 size=N/A time=00:18:58.34 bitrate=N/A speed=19.5x    frame=27541 fps=469 q=-0.0 size=N/A time=00:19:08.68 bitrate=N/A speed=19.5x    frame=27787 fps=469 q=-0.0 size=N/A time=00:19:18.94 bitrate=N/A speed=19.5x    frame=28041 fps=469 q=-0.0 size=N/A time=00:19:29.54 bitrate=N/A speed=19.6x    frame=28276 fps=469 q=-0.0 size=N/A time=00:19:39.34 bitrate=N/A speed=19.5x    frame=28551 fps=469 q=-0.0 size=N/A time=00:19:50.81 bitrate=N/A speed=19.6x    frame=28772 fps=469 q=-0.0 size=N/A time=00:20:00.03 bitrate=N/A speed=19.6x    frame=28976 fps=468 q=-0.0 size=N/A time=00:20:08.54 bitrate=N/A speed=19.5x    frame=29219 fps=468 q=-0.0 size=N/A time=00:20:18.67 bitrate=N/A speed=19.5x    frame=29455 fps=468 q=-0.0 size=N/A time=00:20:28.51 bitrate=N/A speed=19.5x    frame=29692 fps=468 q=-0.0 size=N/A time=00:20:38.40 bitrate=N/A speed=19.5x    frame=29949 fps=468 q=-0.0 size=N/A time=00:20:49.12 bitrate=N/A speed=19.5x    frame=30206 fps=469 q=-0.0 size=N/A time=00:20:59.84 bitrate=N/A speed=19.5x    frame=30479 fps=469 q=-0.0 size=N/A time=00:21:11.22 bitrate=N/A speed=19.6x    frame=30740 fps=469 q=-0.0 size=N/A time=00:21:22.11 bitrate=N/A speed=19.6x    frame=30954 fps=469 q=-0.0 size=N/A time=00:21:31.03 bitrate=N/A speed=19.6x    frame=31196 fps=469 q=-0.0 size=N/A time=00:21:41.13 bitrate=N/A speed=19.6x    frame=31471 fps=470 q=-0.0 size=N/A time=00:21:52.60 bitrate=N/A speed=19.6x    frame=31728 fps=470 q=-0.0 size=N/A time=00:22:03.32 bitrate=N/A speed=19.6x    frame=31982 fps=470 q=-0.0 size=N/A time=00:22:13.91 bitrate=N/A speed=19.6x    frame=32236 fps=470 q=-0.0 size=N/A time=00:22:24.50 bitrate=N/A speed=19.6x    frame=32476 fps=470 q=-0.0 size=N/A time=00:22:34.51 bitrate=N/A speed=19.6x    frame=32686 fps=470 q=-0.0 size=N/A time=00:22:43.27 bitrate=N/A speed=19.6x    frame=32904 fps=469 q=-0.0 size=N/A time=00:22:52.37 bitrate=N/A speed=19.6x    frame=33101 fps=469 q=-0.0 size=N/A time=00:23:00.58 bitrate=N/A speed=19.5x    frame=33317 fps=468 q=-0.0 size=N/A time=00:23:09.59 bitrate=N/A speed=19.5x    frame=33563 fps=468 q=-0.0 size=N/A time=00:23:19.85 bitrate=N/A speed=19.5x    frame=33772 fps=468 q=-0.0 size=N/A time=00:23:28.57 bitrate=N/A speed=19.5x    frame=33992 fps=468 q=-0.0 size=N/A time=00:23:37.74 bitrate=N/A speed=19.5x    frame=34229 fps=467 q=-0.0 size=N/A time=00:23:47.63 bitrate=N/A speed=19.5x    frame=34458 fps=467 q=-0.0 size=N/A time=00:23:57.18 bitrate=N/A speed=19.5x    [Parsed_ssim_10 @ 000001b8df1751c0] SSIM Y:0.993937 (22.173444) U:0.994249 (22.402238) V:0.994184 (22.353910) All:0.994030 (22.240566)
[out#0/null @ 000001b8d333c040] video:14827KiB audio:269856KiB subtitle:0KiB other streams:0KiB global headers:0KiB muxing overhead: unknown
frame=34506 fps=467 q=-0.0 Lsize=N/A time=00:23:59.18 bitrate=N/A speed=19.5x    
